bicep_curl
version=1
nRows=306
nColumns=3
inDegrees=yes

# SIMM Motion File Header:
name bicep_curl
datacolumns 3
datarows 306
otherdata 1
range 0.0000 0.3050
endheader
time	/jointset/r_shoulder/r_shoulder_elev/value	/jointset/r_elbow/r_elbow_flex/value
0.0000	0.0000	87.3600
0.0010	0.0000	87.6353
0.0020	0.0000	87.9103
0.0030	0.0000	88.1851
0.0040	0.0000	88.4597
0.0050	0.0000	88.7340
0.0060	0.0000	89.0080
0.0070	0.0000	89.2818
0.0080	0.0000	89.5554
0.0090	0.0000	89.8287
0.0100	0.0000	90.1017
0.0110	0.0000	90.3745
0.0120	0.0000	90.6471
0.0130	0.0000	90.9194
0.0140	0.0000	91.1915
0.0150	0.0000	91.4633
0.0160	0.0000	91.7349
0.0170	0.0000	92.0062
0.0180	0.0000	92.2772
0.0190	0.0000	92.5481
0.0200	0.0000	92.8186
0.0210	0.0000	93.0890
0.0220	0.0000	93.3590
0.0230	0.0000	93.6289
0.0240	0.0000	93.8985
0.0250	0.0000	94.1678
0.0260	0.0000	94.4369
0.0270	0.0000	94.7057
0.0280	0.0000	94.9743
0.0290	0.0000	95.2427
0.0300	0.0000	95.5107
0.0310	0.0000	95.7786
0.0320	0.0000	96.0462
0.0330	0.0000	96.3135
0.0340	0.0000	96.5806
0.0350	0.0000	96.8475
0.0360	0.0000	97.1141
0.0370	0.0000	97.3805
0.0380	0.0000	97.6466
0.0390	0.0000	97.9124
0.0400	0.0000	98.1780
0.0410	0.0000	98.4434
0.0420	0.0000	98.7085
0.0430	0.0000	98.9734
0.0440	0.0000	99.2380
0.0450	0.0000	99.5024
0.0460	0.0000	99.7665
0.0470	0.0000	100.0304
0.0480	0.0000	100.2940
0.0490	0.0000	100.5574
0.0500	0.0000	100.8205
0.0510	0.0000	101.0834
0.0520	0.0000	101.3460
0.0530	0.0000	101.6084
0.0540	0.0000	101.8705
0.0550	0.0000	102.1324
0.0560	0.0000	102.3941
0.0570	0.0000	102.6555
0.0580	0.0000	102.9166
0.0590	0.0000	103.1775
0.0600	0.0000	103.4382
0.0610	0.0000	103.6986
0.0620	0.0000	103.9587
0.0630	0.0000	104.2186
0.0640	0.0000	104.4783
0.0650	0.0000	104.7377
0.0660	0.0000	104.9969
0.0670	0.0000	105.2558
0.0680	0.0000	105.5144
0.0690	0.0000	105.7728
0.0700	0.0000	106.0310
0.0710	0.0000	106.2889
0.0720	0.0000	106.5466
0.0730	0.0000	106.8040
0.0740	0.0000	107.0612
0.0750	0.0000	107.3181
0.0760	0.0000	107.5748
0.0770	0.0000	107.8312
0.0780	0.0000	108.0874
0.0790	0.0000	108.3434
0.0800	0.0000	108.5990
0.0810	0.0000	108.8545
0.0820	0.0000	109.1097
0.0830	0.0000	109.3646
0.0840	0.0000	109.6193
0.0850	0.0000	109.8738
0.0860	0.0000	110.1280
0.0870	0.0000	110.3819
0.0880	0.0000	110.6356
0.0890	0.0000	110.8891
0.0900	0.0000	111.1423
0.0910	0.0000	111.3952
0.0920	0.0000	111.6479
0.0930	0.0000	111.9004
0.0940	0.0000	112.1526
0.0950	0.0000	112.4046
0.0960	0.0000	112.6563
0.0970	0.0000	112.9078
0.0980	0.0000	113.1590
0.0990	0.0000	113.4100
0.1000	0.0000	113.6607
0.1010	0.0000	113.9112
0.1020	0.0000	114.1614
0.1030	0.0000	114.4114
0.1040	0.0000	114.6611
0.1050	0.0000	114.9106
0.1060	0.0000	115.1598
0.1070	0.0000	115.4088
0.1080	0.0000	115.6575
0.1090	0.0000	115.9060
0.1100	0.0000	116.1543
0.1110	0.0000	116.4023
0.1120	0.0000	116.6500
0.1130	0.0000	116.8975
0.1140	0.0000	117.1448
0.1150	0.0000	117.3918
0.1160	0.0000	117.6385
0.1170	0.0000	117.8850
0.1180	0.0000	118.1313
0.1190	0.0000	118.3773
0.1200	0.0000	118.6230
0.1210	0.0000	118.8686
0.1220	0.0000	119.1138
0.1230	0.0000	119.3588
0.1240	0.0000	119.6036
0.1250	0.0000	119.8481
0.1260	0.0000	120.0924
0.1270	0.0000	120.3364
0.1280	0.0000	120.5802
0.1290	0.0000	120.8237
0.1300	0.0000	121.0670
0.1310	0.0000	121.3100
0.1320	0.0000	121.5528
0.1330	0.0000	121.7954
0.1340	0.0000	122.0377
0.1350	0.0000	122.2797
0.1360	0.0000	122.5215
0.1370	0.0000	122.7630
0.1380	0.0000	123.0043
0.1390	0.0000	123.2454
0.1400	0.0000	123.4862
0.1410	0.0000	123.7267
0.1420	0.0000	123.9670
0.1430	0.0000	124.2071
0.1440	0.0000	124.4469
0.1450	0.0000	124.6864
0.1460	0.0000	124.9257
0.1470	0.0000	125.1648
0.1480	0.0000	125.4036
0.1490	0.0000	125.6422
0.1500	0.0000	125.8805
0.1510	0.0000	126.1186
0.1520	0.0000	126.3564
0.1530	0.0000	126.5940
0.1540	0.0000	126.8313
0.1550	0.0000	127.0684
0.1560	0.0000	127.3052
0.1570	0.0000	127.5418
0.1580	0.0000	127.7781
0.1590	0.0000	128.0142
0.1600	0.0000	128.2500
0.1610	0.0000	128.4856
0.1620	0.0000	128.7210
0.1630	0.0000	128.9561
0.1640	0.0000	129.1909
0.1650	0.0000	129.4255
0.1660	0.0000	129.6598
0.1670	0.0000	129.8939
0.1680	0.0000	130.1278
0.1690	0.0000	130.3614
0.1700	0.0000	130.5947
0.1710	0.0000	130.8279
0.1720	0.0000	131.0607
0.1730	0.0000	131.2933
0.1740	0.0000	131.5257
0.1750	0.0000	131.7578
0.1760	0.0000	131.9897
0.1770	0.0000	132.2213
0.1780	0.0000	132.4526
0.1790	0.0000	132.6838
0.1800	0.0000	132.9146
0.1810	0.0000	133.1453
0.1820	0.0000	133.3756
0.1830	0.0000	133.6058
0.1840	0.0000	133.8357
0.1850	0.0000	134.0653
0.1860	0.0000	134.2947
0.1870	0.0000	134.5238
0.1880	0.0000	134.7527
0.1890	0.0000	134.9813
0.1900	0.0000	135.2097
0.1910	0.0000	135.4379
0.1920	0.0000	135.6658
0.1930	0.0000	135.8934
0.1940	0.0000	136.1208
0.1950	0.0000	136.3480
0.1960	0.0000	136.5749
0.1970	0.0000	136.8015
0.1980	0.0000	137.0279
0.1990	0.0000	137.2541
0.2000	0.0000	137.4800
0.2010	0.0000	137.2982
0.2020	0.0000	137.1176
0.2030	0.0000	136.9382
0.2040	0.0000	136.7601
0.2050	0.0000	136.5833
0.2060	0.0000	136.4077
0.2070	0.0000	136.2333
0.2080	0.0000	136.0602
0.2090	0.0000	135.8884
0.2100	0.0000	135.7178
0.2110	0.0000	135.5485
0.2120	0.0000	135.3804
0.2130	0.0000	135.2135
0.2140	0.0000	135.0479
0.2150	0.0000	134.8836
0.2160	0.0000	134.7205
0.2170	0.0000	134.5587
0.2180	0.0000	134.3981
0.2190	0.0000	134.2388
0.2200	0.0000	134.0807
0.2210	0.0000	133.9238
0.2220	0.0000	133.7683
0.2230	0.0000	133.6139
0.2240	0.0000	133.4608
0.2250	0.0000	133.3090
0.2260	0.0000	133.1584
0.2270	0.0000	133.0091
0.2280	0.0000	132.8610
0.2290	0.0000	132.7142
0.2300	0.0000	132.5686
0.2310	0.0000	132.4243
0.2320	0.0000	132.2812
0.2330	0.0000	132.1394
0.2340	0.0000	131.9988
0.2350	0.0000	131.8595
0.2360	0.0000	131.7214
0.2370	0.0000	131.5846
0.2380	0.0000	131.4490
0.2390	0.0000	131.3147
0.2400	0.0000	131.1816
0.2410	0.0000	131.0498
0.2420	0.0000	130.9193
0.2430	0.0000	130.7899
0.2440	0.0000	130.6619
0.2450	0.0000	130.5351
0.2460	0.0000	130.4095
0.2470	0.0000	130.2852
0.2480	0.0000	130.1621
0.2490	0.0000	130.0403
0.2500	0.0000	129.9197
0.2510	0.0000	129.8004
0.2520	0.0000	129.6824
0.2530	0.0000	129.5655
0.2540	0.0000	129.4500
0.2550	0.0000	129.3357
0.2560	0.0000	129.2226
0.2570	0.0000	129.1108
0.2580	0.0000	129.0003
0.2590	0.0000	128.8910
0.2600	0.0000	128.7829
0.2610	0.0000	128.6761
0.2620	0.0000	128.5705
0.2630	0.0000	128.4662
0.2640	0.0000	128.3632
0.2650	0.0000	128.2614
0.2660	0.0000	128.1608
0.2670	0.0000	128.0615
0.2680	0.0000	127.9635
0.2690	0.0000	127.8667
0.2700	0.0000	127.7711
0.2710	0.0000	127.6768
0.2720	0.0000	127.5838
0.2730	0.0000	127.4920
0.2740	0.0000	127.4015
0.2750	0.0000	127.3122
0.2760	0.0000	127.2241
0.2770	0.0000	127.1373
0.2780	0.0000	127.0518
0.2790	0.0000	126.9675
0.2800	0.0000	126.8845
0.2810	0.0000	126.8027
0.2820	0.0000	126.7221
0.2830	0.0000	126.6428
0.2840	0.0000	126.5648
0.2850	0.0000	126.4880
0.2860	0.0000	126.4125
0.2870	0.0000	126.3382
0.2880	0.0000	126.2652
0.2890	0.0000	126.1934
0.2900	0.0000	126.1228
0.2910	0.0000	126.0536
0.2920	0.0000	125.9855
0.2930	0.0000	125.9188
0.2940	0.0000	125.8532
0.2950	0.0000	125.7889
0.2960	0.0000	125.7259
0.2970	0.0000	125.6641
0.2980	0.0000	125.6036
0.2990	0.0000	125.5443
0.3000	0.0000	125.4863
0.3010	0.0000	125.4295
0.3020	0.0000	125.3740
0.3030	0.0000	125.3197
0.3040	0.0000	125.2667
0.3050	0.0000	125.2149
